<svg xmlns="http://www.w3.org/2000/svg" xmlns:xlink="http://www.w3.org/1999/xlink" width="1648" zoomAndPan="magnify" viewBox="0 0 1236 1487.999934" height="1984" preserveAspectRatio="xMidYMid meet" version="1.0"><defs><g/><clipPath id="2a9f37957c"><path d="M 1.011719 0.265625 L 1234.875 0.265625 L 1234.875 1487.601562 L 1.011719 1487.601562 Z M 1.011719 0.265625 " clip-rule="nonzero"/></clipPath><clipPath id="5a39741aec"><path d="M 216.121094 291 L 336 291 L 336 565 L 216.121094 565 Z M 216.121094 291 " clip-rule="nonzero"/></clipPath><clipPath id="2cc065460f"><path d="M 366 237 L 443 237 L 443 1113.515625 L 366 1113.515625 Z M 366 237 " clip-rule="nonzero"/></clipPath><clipPath id="d0341ca7cd"><path d="M 473 231 L 550 231 L 550 1113.515625 L 473 1113.515625 Z M 473 231 " clip-rule="nonzero"/></clipPath><clipPath id="3e1940bce0"><path d="M 579 283 L 657 283 L 657 1113.515625 L 579 1113.515625 Z M 579 283 " clip-rule="nonzero"/></clipPath><clipPath id="aeb50fad5f"><path d="M 498 195.105469 L 737 195.105469 L 737 269 L 498 269 Z M 498 195.105469 " clip-rule="nonzero"/></clipPath><clipPath id="7412ccbd4f"><path d="M 686 230 L 764 230 L 764 1113.515625 L 686 1113.515625 Z M 686 230 " clip-rule="nonzero"/></clipPath><clipPath id="d4a6e2f495"><path d="M 900 291 L 1019.839844 291 L 1019.839844 565 L 900 565 Z M 900 291 " clip-rule="nonzero"/></clipPath><clipPath id="ba77ab408a"><path d="M 793 237 L 870 237 L 870 1113.515625 L 793 1113.515625 Z M 793 237 " clip-rule="nonzero"/></clipPath><clipPath id="71ca31d7e0"><path d="M 463.089844 549.640625 L 772.910156 549.640625 L 772.910156 800.691406 L 463.089844 800.691406 Z M 463.089844 549.640625 " clip-rule="nonzero"/></clipPath></defs><g clip-path="url(#2a9f37957c)"><path fill="#ffcc00" d="M 617.941406 0.265625 L 1.011719 218.734375 L 24.902344 317.332031 C 78.351562 537.910156 59.324219 527.597656 33.054688 657.894531 C -11.617188 879.496094 76.871094 1056.484375 195.226562 1170.804688 C 313.585938 1285.121094 455.367188 1358.683594 548.066406 1432.222656 L 617.941406 1487.65625 L 687.816406 1432.222656 C 780.515625 1358.683594 922.300781 1285.121094 1040.65625 1170.804688 C 1159.007812 1056.484375 1247.5 879.496094 1202.828125 657.894531 C 1176.554688 527.597656 1157.53125 537.910156 1210.976562 317.332031 L 1234.875 218.734375 L 1139.234375 184.863281 Z M 617.941406 238.828125 L 971.730469 364.109375 C 942.757812 529.628906 963.050781 606.398438 982.390625 702.332031 C 1013.21875 855.253906 969.648438 926.753906 884.433594 1009.0625 C 815.707031 1075.445312 715.898438 1135.164062 617.941406 1204.621094 C 519.988281 1135.164062 420.175781 1075.445312 351.449219 1009.0625 C 266.234375 926.753906 222.664062 855.253906 253.492188 702.332031 C 272.832031 606.398438 293.128906 529.628906 264.152344 364.109375 L 617.941406 238.828125 " fill-opacity="1" fill-rule="nonzero"/></g><path fill="#212529" d="M 617.941406 59.910156 L 67.589844 254.796875 L 79.542969 304.09375 C 134.121094 529.324219 113.589844 542.902344 88.167969 669.003906 C 46.953125 873.4375 124.210938 1024.054688 234.28125 1130.375 C 344.355469 1236.6875 484.011719 1309.648438 583 1388.179688 L 617.941406 1415.898438 L 652.882812 1388.179688 C 751.871094 1309.648438 891.53125 1236.6875 1001.601562 1130.375 C 1111.675781 1024.054688 1188.929688 873.4375 1147.714844 669.003906 C 1122.292969 542.902344 1101.757812 529.324219 1156.335938 304.09375 L 1168.289062 254.796875 L 1120.472656 237.859375 Z M 617.941406 179.183594 L 1036.117188 327.269531 C 994.703125 520.238281 1015.605469 582.601562 1037.503906 691.222656 C 1071.792969 861.3125 1016.988281 959.1875 923.488281 1049.496094 C 839.363281 1130.746094 722.027344 1197.570312 617.941406 1274.503906 C 513.855469 1197.570312 396.519531 1130.746094 312.394531 1049.496094 C 218.894531 959.1875 164.097656 861.3125 198.390625 691.222656 C 220.285156 582.601562 241.179688 520.238281 199.765625 327.269531 L 617.941406 179.183594 " fill-opacity="1" fill-rule="nonzero"/><path fill="#ffffff" d="M 1101.703125 290.855469 C 1046 520.742188 1068.03125 558.199219 1092.605469 680.109375 C 1168.113281 1054.632812 828.492188 1177.105469 617.941406 1344.140625 C 407.390625 1177.105469 67.777344 1054.632812 143.277344 680.109375 C 167.851562 558.199219 189.886719 520.742188 134.179688 290.855469 L 617.941406 119.554688 L 1101.703125 290.855469 " fill-opacity="1" fill-rule="nonzero"/><g clip-path="url(#5a39741aec)"><path fill="#212529" d="M 335.53125 291.234375 L 335.53125 564.679688 L 216.121094 529.363281 L 309.210938 304.488281 Z M 335.53125 291.234375 " fill-opacity="1" fill-rule="nonzero"/></g><g clip-path="url(#2cc065460f)"><path fill="#212529" d="M 442.410156 237.304688 L 442.410156 1113.105469 L 366.175781 1113.105469 L 366.175781 275.757812 L 414.371094 251.4375 Z M 442.410156 237.304688 " fill-opacity="1" fill-rule="nonzero"/></g><g clip-path="url(#d0341ca7cd)"><path fill="#212529" d="M 549.292969 268.671875 L 549.292969 1113.105469 L 473.058594 1113.105469 L 473.058594 231.058594 Z M 549.292969 268.671875 " fill-opacity="1" fill-rule="nonzero"/></g><g clip-path="url(#3e1940bce0)"><path fill="#212529" d="M 656.175781 283.574219 L 656.175781 1113.105469 L 579.941406 1113.105469 L 579.941406 283.765625 L 618.097656 302.609375 Z M 656.175781 283.574219 " fill-opacity="1" fill-rule="nonzero"/></g><g clip-path="url(#aeb50fad5f)"><path fill="#212529" d="M 736.664062 209.035156 L 732.640625 211.066406 L 618.019531 268.367188 L 498.074219 209.226562 L 524.96875 195.628906 L 618.097656 241.59375 L 709.960938 195.628906 Z M 736.664062 209.035156 " fill-opacity="1" fill-rule="nonzero"/></g><g clip-path="url(#7412ccbd4f)"><path fill="#212529" d="M 763.058594 230.101562 L 763.058594 1113.105469 L 686.824219 1113.105469 L 686.824219 268.253906 Z M 763.058594 230.101562 " fill-opacity="1" fill-rule="nonzero"/></g><g clip-path="url(#d4a6e2f495)"><path fill="#212529" d="M 1019.957031 529.363281 L 900.585938 564.679688 L 900.585938 291.3125 L 926.867188 304.523438 Z M 1019.957031 529.363281 " fill-opacity="1" fill-rule="nonzero"/></g><g clip-path="url(#ba77ab408a)"><path fill="#212529" d="M 869.9375 275.949219 L 869.9375 1113.105469 L 793.703125 1113.105469 L 793.703125 237.648438 Z M 869.9375 275.949219 " fill-opacity="1" fill-rule="nonzero"/></g><g clip-path="url(#71ca31d7e0)"><path fill="#ffffff" d="M 463.089844 549.640625 L 772.746094 549.640625 L 772.746094 800.78125 L 463.089844 800.78125 Z M 463.089844 549.640625 " fill-opacity="1" fill-rule="nonzero"/></g><g fill="#212529" fill-opacity="1"><g transform="translate(535.940296, 719.416384)"><g><path d="M 51.902344 0 L 51.902344 -103.503906 L 9.75 -103.503906 L 9.75 -86.855469 L 28.5 -86.855469 L 28.5 0 Z M 51.902344 0 "/></g></g></g><g fill="#212529" fill-opacity="1"><g transform="translate(606.143223, 719.416384)"><g><path d="M 89.855469 -51.601562 C 89.855469 -78.902344 77.105469 -105.003906 46.953125 -105.003906 C 16.800781 -105.003906 4.050781 -78.902344 4.050781 -51.601562 C 4.050781 -24.300781 16.652344 1.800781 46.953125 1.800781 C 77.105469 1.800781 89.855469 -24.300781 89.855469 -51.601562 Z M 66.003906 -52.050781 C 66.003906 -33.453125 60.304688 -19.050781 46.953125 -19.050781 C 33.601562 -19.050781 27.902344 -33.453125 27.902344 -52.050781 C 27.902344 -70.652344 33.601562 -84.753906 46.953125 -84.753906 C 60.304688 -84.753906 66.003906 -70.652344 66.003906 -52.050781 Z M 66.003906 -52.050781 "/></g></g></g></svg>